<svg viewBox="0 0 512 512" xmlns="http://www.w3.org/2000/svg"><text x="764.06" y="240.45"><tspan x="764.06" y="240.45"/></text><text transform="scale(4.0128 .2492)" x="387.49" y="615.72"/><text x="1345.33" y="160.45"><tspan x="1345.33" y="160.45"/></text><text transform="scale(4.0128 .2492)" x="532.33" y="294.7"/><text x="273.75" y="-20.811"><tspan x="273.75" y="-20.811"/></text><text transform="scale(4.0128 .2492)" x="265.3" y="-432.66"/><text x="1371.8" y="-237.28"><tspan x="1371.8" y="-237.28"/></text><text transform="scale(4.0128 .2492)" x="538.93" y="-1301.33"/><text x="1953.07" y="-317.29"><tspan x="1953.07" y="-317.29"/></text><text transform="scale(4.0128 .2492)" x="683.78" y="-1622.36"/><text x="1563.95" y="-789.69"><tspan x="1563.95" y="-789.69"/></text><text transform="scale(4.0128 .2492)" x="586.81" y="-3518.01"/><text x="2145.21" y="-869.69"><tspan x="2145.21" y="-869.69"/></text><text transform="scale(4.0128 .2492)" x="731.66" y="-3839.04"/><text x="312.41" y="545.03"><tspan x="312.41" y="545.03"/></text><text x="764.06" y="240.45"><tspan x="764.06" y="240.45"/></text><text transform="scale(4.0128 .2492)" x="387.49" y="615.74"/><text x="1345.33" y="160.45"><tspan x="1345.33" y="160.45"/></text><text transform="scale(4.0128 .2492)" x="532.33" y="294.7"/><text x="273.75" y="-20.81"><tspan x="273.75" y="-20.81"/></text><text transform="scale(4.0128 .2492)" x="265.3" y="-432.65"/><text x="1371.8" y="-237.28"><tspan x="1371.8" y="-237.28"/></text><text transform="scale(4.0128 .2492)" x="538.93" y="-1301.32"/><text x="1953.07" y="-317.28"><tspan x="1953.07" y="-317.28"/></text><text transform="scale(4.0128 .2492)" x="683.78" y="-1622.35"/><text x="1563.95" y="-789.68"><tspan x="1563.95" y="-789.68"/></text><text transform="scale(4.0128 .2492)" x="586.81" y="-3518"/><text x="2145.21" y="-869.69"><tspan x="2145.21" y="-869.69"/></text><text transform="scale(4.0128 .2492)" x="731.66" y="-3839.04"/><text x="312.41" y="545.03"><tspan x="312.41" y="545.03"/></text><text x="1351.99" y="138.48"><tspan x="1351.99" y="138.48"/></text><text transform="scale(4.0128 .2492)" x="534" y="206.55"/><text x="1933.26" y="58.48"><tspan x="1933.26" y="58.48"/></text><text transform="scale(4.0128 .2492)" x="678.85" y="-114.48"/><text x="861.68" y="-122.78"><tspan x="861.68" y="-122.78"/></text><text transform="scale(4.0128 .2492)" x="411.81" y="-841.83"/><text x="1959.73" y="-339.25"><tspan x="1959.73" y="-339.25"/></text><text transform="scale(4.0128 .2492)" x="685.45" y="-1710.5"/><text x="2541" y="-419.26"><tspan x="2541" y="-419.26"/></text><text transform="scale(4.0128 .2492)" x="830.3" y="-2031.54"/><text x="2151.88" y="-891.66"><tspan x="2151.88" y="-891.66"/></text><text transform="scale(4.0128 .2492)" x="733.33" y="-3927.19"/><text x="2733.14" y="-971.66"><tspan x="2733.14" y="-971.66"/></text><text transform="scale(4.0128 .2492)" x="878.18" y="-4248.21"/><text x="900.34" y="443.06"><tspan x="900.34" y="443.06"/></text><text x="764.06" y="240.45"><tspan x="764.06" y="240.45"/></text><text transform="scale(4.0128 .2492)" x="387.49" y="615.72"/><text x="1345.33" y="160.45"><tspan x="1345.33" y="160.45"/></text><text transform="scale(4.0128 .2492)" x="532.33" y="294.7"/><text x="273.75" y="-20.811"><tspan x="273.75" y="-20.811"/></text><text transform="scale(4.0128 .2492)" x="265.3" y="-432.66"/><text x="1371.8" y="-237.28"><tspan x="1371.8" y="-237.28"/></text><text transform="scale(4.0128 .2492)" x="538.93" y="-1301.33"/><text x="1953.07" y="-317.29"><tspan x="1953.07" y="-317.29"/></text><text transform="scale(4.0128 .2492)" x="683.78" y="-1622.36"/><text x="1563.95" y="-789.69"><tspan x="1563.95" y="-789.69"/></text><text transform="scale(4.0128 .2492)" x="586.81" y="-3518.01"/><text x="2145.21" y="-869.69"><tspan x="2145.21" y="-869.69"/></text><text transform="scale(4.0128 .2492)" x="731.66" y="-3839.04"/><text x="312.41" y="545.03"><tspan x="312.41" y="545.03"/></text><text x="-843.53" y="97.26"><tspan x="-843.53" y="97.26"/></text><text transform="scale(4.0128 .2492)" x="-13.13" y="41.14"/><text x="-262.26" y="17.264"><tspan x="-262.26" y="17.264"/></text><text transform="scale(4.0128 .2492)" x="131.72" y="-279.89"/><text x="-1333.84" y="-164"><tspan x="-1333.84" y="-164"/></text><text transform="scale(4.0128 .2492)" x="-135.32" y="-1007.24"/><text x="-235.79" y="-380.47"><tspan x="-235.79" y="-380.47"/></text><text transform="scale(4.0128 .2492)" x="138.32" y="-1875.91"/><text x="345.48" y="-460.48"><tspan x="345.48" y="-460.48"/></text><text transform="scale(4.0128 .2492)" x="283.17" y="-2196.95"/><text x="-43.643" y="-932.88"><tspan x="-43.643" y="-932.88"/></text><text transform="scale(4.0128 .2492)" x="186.2" y="-4092.6"/><text x="537.62" y="-1012.88"><tspan x="537.62" y="-1012.88"/></text><text transform="scale(4.0128 .2492)" x="331.05" y="-4413.62"/><text x="-1295.18" y="401.84"><tspan x="-1295.18" y="401.84"/></text><text x="-1724.09" y="-95.23"><tspan x="-1724.09" y="-95.23"/></text><text transform="scale(4.0128 .2492)" x="-111.92" y="-945.03"/><text x="-2371.85" y="-863.18"><tspan x="-2371.85" y="-863.18"/></text><text transform="scale(4.0128 .2492)" x="-273.34" y="-4026.7"/><text x="-1665.51" y="-1018.81"><tspan x="-1665.51" y="-1018.81"/></text><text transform="scale(4.0128 .2492)" x="-97.32" y="-4651.22"/><text x="-767.6" y="192.72"><tspan x="-767.6" y="192.72"/></text><text transform="scale(4.0128 .2492)" x="5.794" y="424.2"/><text x="-186.33" y="112.72"><tspan x="-186.33" y="112.72"/></text><text transform="scale(4.0128 .2492)" x="150.64" y="103.17"/><text x="-1257.91" y="-68.54"><tspan x="-1257.91" y="-68.54"/></text><text transform="scale(4.0128 .2492)" x="-116.4" y="-624.19"/><text x="-159.86" y="-285.01"><tspan x="-159.86" y="-285.01"/></text><text transform="scale(4.0128 .2492)" x="157.24" y="-1492.85"/><text x="421.41" y="-365.02"><tspan x="421.41" y="-365.02"/></text><text transform="scale(4.0128 .2492)" x="302.09" y="-1813.89"/><text x="32.29" y="-837.42"><tspan x="32.29" y="-837.42"/></text><text transform="scale(4.0128 .2492)" x="205.12" y="-3709.54"/><text x="613.55" y="-917.42"><tspan x="613.55" y="-917.42"/></text><text transform="scale(4.0128 .2492)" x="349.97" y="-4030.57"/><text x="-1219.25" y="497.3"><tspan x="-1219.25" y="497.3"/></text><text x="-562.21" y="695.42"><tspan x="-562.21" y="695.42"/></text><text transform="scale(4.0128 .2492)" x="56.978" y="2441.44"/><text x="19.06" y="615.42"><tspan x="19.06" y="615.42"/></text><text transform="scale(4.0128 .2492)" x="201.83" y="2120.41"/><text x="-1052.52" y="434.16"><tspan x="-1052.52" y="434.16"/></text><text transform="scale(4.0128 .2492)" x="-65.21" y="1393.05"/><text x="45.534" y="217.69"><tspan x="45.534" y="217.69"/></text><text transform="scale(4.0128 .2492)" x="208.43" y="524.39"/><text x="626.8" y="137.68"><tspan x="626.8" y="137.68"/></text><text transform="scale(4.0128 .2492)" x="353.28" y="203.35"/><text x="237.68" y="-334.72"><tspan x="237.68" y="-334.72"/></text><text transform="scale(4.0128 .2492)" x="256.31" y="-1692.3"/><text x="818.94" y="-414.72"><tspan x="818.94" y="-414.72"/></text><text transform="scale(4.0128 .2492)" x="401.16" y="-2013.33"/><text x="-1013.86" y="1000"><tspan x="-1013.86" y="1000"/></text><text x="-1505.94" y="617.32"><tspan x="-1505.94" y="617.32"/></text><text transform="scale(4.0128 .2492)" x="-178.2" y="2128.03"/><text x="-924.67" y="537.32"><tspan x="-924.67" y="537.32"/></text><text transform="scale(4.0128 .2492)" x="-33.35" y="1807"/><text x="-1996.25" y="356.06"><tspan x="-1996.25" y="356.06"/></text><text transform="scale(4.0128 .2492)" x="-300.39" y="1079.64"/><text x="-898.2" y="139.59"><tspan x="-898.2" y="139.59"/></text><text transform="scale(4.0128 .2492)" x="-26.751" y="210.98"/><text x="-316.93" y="59.58"><tspan x="-316.93" y="59.58"/></text><text transform="scale(4.0128 .2492)" x="118.1" y="-110.06"/><text x="-706.05" y="-412.82"><tspan x="-706.05" y="-412.82"/></text><text transform="scale(4.0128 .2492)" x="21.13" y="-2005.71"/><text x="-124.79" y="-492.82"><tspan x="-124.79" y="-492.82"/></text><text transform="scale(4.0128 .2492)" x="165.98" y="-2326.74"/><text x="-1957.59" y="921.9"><tspan x="-1957.59" y="921.9"/></text><text x="-1258.48" y="692.16"><tspan x="-1258.48" y="692.16"/></text><text transform="scale(4.0128 .2492)" x="-116.53" y="2428.37"/><text x="-677.21" y="612.16"><tspan x="-677.21" y="612.16"/></text><text transform="scale(4.0128 .2492)" x="28.315" y="2107.34"/><text x="-1748.79" y="430.9"><tspan x="-1748.79" y="430.9"/></text><text transform="scale(4.0128 .2492)" x="-238.72" y="1379.98"/><text x="-650.74" y="214.43"><tspan x="-650.74" y="214.43"/></text><text transform="scale(4.0128 .2492)" x="34.915" y="511.32"/><text x="-69.47" y="134.42"><tspan x="-69.47" y="134.42"/></text><text transform="scale(4.0128 .2492)" x="179.76" y="190.28"/><text x="-458.59" y="-337.98"><tspan x="-458.59" y="-337.98"/></text><text transform="scale(4.0128 .2492)" x="82.79" y="-1705.37"/><text x="122.67" y="-417.98"><tspan x="122.67" y="-417.98"/></text><text transform="scale(4.0128 .2492)" x="227.64" y="-2026.4"/><text x="-1710.13" y="996.74"><tspan x="-1710.13" y="996.74"/></text><text x="-2124.52" y="9.907"><tspan x="-2124.52" y="9.907"/></text><text transform="scale(4.0128 .2492)" x="-332.35" y="-309.4"/><text x="-1543.25" y="-70.09"><tspan x="-1543.25" y="-70.09"/></text><text transform="scale(4.0128 .2492)" x="-187.5" y="-630.43"/><text x="-2614.83" y="-251.35"><tspan x="-2614.83" y="-251.35"/></text><text transform="scale(4.0128 .2492)" x="-454.54" y="-1357.79"/><text x="-1516.78" y="-467.82"><tspan x="-1516.78" y="-467.82"/></text><text transform="scale(4.0128 .2492)" x="-180.9" y="-2226.45"/><text x="-935.51" y="-547.83"><tspan x="-935.51" y="-547.83"/></text><text transform="scale(4.0128 .2492)" x="-36.05" y="-2547.49"/><text x="-1324.63" y="-1020.23"><tspan x="-1324.63" y="-1020.23"/></text><text transform="scale(4.0128 .2492)" x="-133.02" y="-4443.14"/><text x="-743.37" y="-1100.23"><tspan x="-743.37" y="-1100.23"/></text><text transform="scale(4.0128 .2492)" x="11.825" y="-4764.17"/><text x="-2576.17" y="314.49"><tspan x="-2576.17" y="314.49"/></text><text x="-3005.08" y="-182.59"><tspan x="-3005.08" y="-182.59"/></text><text transform="scale(4.0128 .2492)" x="-431.14" y="-1295.58"/><text x="-3652.84" y="-950.54"><tspan x="-3652.84" y="-950.54"/></text><text transform="scale(4.0128 .2492)" x="-592.56" y="-4377.24"/><text x="-2946.5" y="-1106.17"><tspan x="-2946.5" y="-1106.17"/></text><text transform="scale(4.0128 .2492)" x="-416.54" y="-5001.77"/><text x="-2473.81" y="179.13"><tspan x="-2473.81" y="179.13"/></text><text transform="scale(4.0128 .2492)" x="-419.4" y="369.65"/><text x="-1892.54" y="99.13"><tspan x="-1892.54" y="99.13"/></text><text transform="scale(4.0128 .2492)" x="-274.55" y="48.62"/><text x="-2964.12" y="-82.13"><tspan x="-2964.12" y="-82.13"/></text><text transform="scale(4.0128 .2492)" x="-541.59" y="-678.74"/><text x="-1866.07" y="-298.6"><tspan x="-1866.07" y="-298.6"/></text><text transform="scale(4.0128 .2492)" x="-267.95" y="-1547.4"/><text x="-1284.8" y="-378.61"><tspan x="-1284.8" y="-378.61"/></text><text transform="scale(4.0128 .2492)" x="-123.1" y="-1868.44"/><text x="-1673.92" y="-851.01"><tspan x="-1673.92" y="-851.01"/></text><text transform="scale(4.0128 .2492)" x="-220.07" y="-3764.09"/><text x="-1092.66" y="-931.01"><tspan x="-1092.66" y="-931.01"/></text><text transform="scale(4.0128 .2492)" x="-75.22" y="-4085.12"/><text x="-2925.46" y="483.71"><tspan x="-2925.46" y="483.71"/></text><text x="764.05" y="240.43"><tspan x="764.05" y="240.43"/></text><text transform="scale(4.0128 .2492)" x="387.5" y="615.73"/><text x="1345.33" y="160.45"><tspan x="1345.33" y="160.45"/></text><text transform="scale(4.0128 .2492)" x="532.35" y="294.69"/><text x="273.73" y="-20.812"><tspan x="273.73" y="-20.812"/></text><text transform="scale(4.0128 .2492)" x="265.29" y="-432.66"/><text x="1371.8" y="-237.28"><tspan x="1371.8" y="-237.28"/></text><text transform="scale(4.0128 .2492)" x="538.94" y="-1301.33"/><text x="1953.08" y="-317.28"><tspan x="1953.08" y="-317.28"/></text><text transform="scale(4.0128 .2492)" x="683.79" y="-1622.35"/><text x="1563.96" y="-789.68"><tspan x="1563.96" y="-789.68"/></text><text transform="scale(4.0128 .2492)" x="586.81" y="-3518.01"/><text x="2145.2" y="-869.69"><tspan x="2145.2" y="-869.69"/></text><text transform="scale(4.0128 .2492)" x="731.66" y="-3839.03"/><text x="312.39" y="545.01"><tspan x="312.39" y="545.01"/></text><text x="729.64" y="231.36"><tspan x="729.64" y="231.36"/></text><text transform="scale(4.0128 .2492)" x="378.91" y="579.26"/><text x="1310.91" y="151.36"><tspan x="1310.91" y="151.36"/></text><text transform="scale(4.0128 .2492)" x="523.76" y="258.22"/><text x="239.33" y="-29.9"><tspan x="239.33" y="-29.9"/></text><text transform="scale(4.0128 .2492)" x="256.72" y="-469.13"/><text x="1337.38" y="-246.37"><tspan x="1337.38" y="-246.37"/></text><text transform="scale(4.0128 .2492)" x="530.36" y="-1337.8"/><text x="1918.65" y="-326.37"><tspan x="1918.65" y="-326.37"/></text><text transform="scale(4.0128 .2492)" x="675.21" y="-1658.83"/><text x="1529.53" y="-798.77"><tspan x="1529.53" y="-798.77"/></text><text transform="scale(4.0128 .2492)" x="578.24" y="-3554.48"/><text x="2110.79" y="-878.78"><tspan x="2110.79" y="-878.78"/></text><text transform="scale(4.0128 .2492)" x="723.09" y="-3875.52"/><text x="277.99" y="535.94"><tspan x="277.99" y="535.94"/></text><text x="729.64" y="231.36"><tspan x="729.64" y="231.36"/></text><text transform="scale(4.0128 .2492)" x="378.91" y="579.26"/><text x="1310.91" y="151.36"><tspan x="1310.91" y="151.36"/></text><text transform="scale(4.0128 .2492)" x="523.76" y="258.22"/><text x="239.33" y="-29.9"><tspan x="239.33" y="-29.9"/></text><text transform="scale(4.0128 .2492)" x="256.72" y="-469.13"/><text x="1337.38" y="-246.37"><tspan x="1337.38" y="-246.37"/></text><text transform="scale(4.0128 .2492)" x="530.36" y="-1337.8"/><text x="1918.65" y="-326.37"><tspan x="1918.65" y="-326.37"/></text><text transform="scale(4.0128 .2492)" x="675.21" y="-1658.83"/><text x="1529.53" y="-798.77"><tspan x="1529.53" y="-798.77"/></text><text transform="scale(4.0128 .2492)" x="578.24" y="-3554.48"/><text x="2110.79" y="-878.78"><tspan x="2110.79" y="-878.78"/></text><text transform="scale(4.0128 .2492)" x="723.09" y="-3875.52"/><text x="277.99" y="535.94"><tspan x="277.99" y="535.94"/></text><text x="729.64" y="231.36"><tspan x="729.64" y="231.36"/></text><text transform="scale(4.0128 .2492)" x="378.91" y="579.26"/><text x="1310.91" y="151.36"><tspan x="1310.91" y="151.36"/></text><text transform="scale(4.0128 .2492)" x="523.76" y="258.22"/><text x="239.33" y="-29.9"><tspan x="239.33" y="-29.9"/></text><text transform="scale(4.0128 .2492)" x="256.72" y="-469.13"/><text x="1337.38" y="-246.37"><tspan x="1337.38" y="-246.37"/></text><text transform="scale(4.0128 .2492)" x="530.36" y="-1337.8"/><text x="1918.65" y="-326.37"><tspan x="1918.65" y="-326.37"/></text><text transform="scale(4.0128 .2492)" x="675.21" y="-1658.83"/><text x="1529.53" y="-798.77"><tspan x="1529.53" y="-798.77"/></text><text transform="scale(4.0128 .2492)" x="578.24" y="-3554.48"/><text x="2110.79" y="-878.78"><tspan x="2110.79" y="-878.78"/></text><text transform="scale(4.0128 .2492)" x="723.09" y="-3875.52"/><text x="277.99" y="535.94"><tspan x="277.99" y="535.94"/></text><text x="729.64" y="231.36"><tspan x="729.64" y="231.36"/></text><text transform="scale(4.0128 .2492)" x="378.91" y="579.26"/><text x="1310.91" y="151.36"><tspan x="1310.91" y="151.36"/></text><text transform="scale(4.0128 .2492)" x="523.76" y="258.22"/><text x="239.33" y="-29.9"><tspan x="239.33" y="-29.9"/></text><text transform="scale(4.0128 .2492)" x="256.72" y="-469.13"/><text x="1337.38" y="-246.37"><tspan x="1337.38" y="-246.37"/></text><text transform="scale(4.0128 .2492)" x="530.36" y="-1337.8"/><text x="1918.65" y="-326.37"><tspan x="1918.65" y="-326.37"/></text><text transform="scale(4.0128 .2492)" x="675.21" y="-1658.83"/><text x="1529.53" y="-798.77"><tspan x="1529.53" y="-798.77"/></text><text transform="scale(4.0128 .2492)" x="578.24" y="-3554.48"/><text x="2110.79" y="-878.78"><tspan x="2110.79" y="-878.78"/></text><text transform="scale(4.0128 .2492)" x="723.09" y="-3875.52"/><text x="277.99" y="535.94"><tspan x="277.99" y="535.94"/></text><text x="729.64" y="231.36"><tspan x="729.64" y="231.36"/></text><text transform="scale(4.0128 .2492)" x="378.91" y="579.26"/><text x="1310.91" y="151.36"><tspan x="1310.91" y="151.36"/></text><text transform="scale(4.0128 .2492)" x="523.76" y="258.22"/><text x="239.33" y="-29.9"><tspan x="239.33" y="-29.9"/></text><text transform="scale(4.0128 .2492)" x="256.72" y="-469.13"/><text x="1337.38" y="-246.37"><tspan x="1337.38" y="-246.37"/></text><text transform="scale(4.0128 .2492)" x="530.36" y="-1337.8"/><text x="1918.65" y="-326.37"><tspan x="1918.65" y="-326.37"/></text><text transform="scale(4.0128 .2492)" x="675.21" y="-1658.83"/><text x="1529.53" y="-798.77"><tspan x="1529.53" y="-798.77"/></text><text transform="scale(4.0128 .2492)" x="578.24" y="-3554.48"/><text x="2110.79" y="-878.78"><tspan x="2110.79" y="-878.78"/></text><text transform="scale(4.0128 .2492)" x="723.09" y="-3875.52"/><text x="277.99" y="535.94"><tspan x="277.99" y="535.94"/></text><text x="1317.57" y="129.39"><tspan x="1317.57" y="129.39"/></text><text transform="scale(4.0128 .2492)" x="525.42" y="170.08"/><text x="1898.84" y="49.39"><tspan x="1898.84" y="49.39"/></text><text transform="scale(4.0128 .2492)" x="670.27" y="-150.95"/><text x="827.26" y="-131.87"><tspan x="827.26" y="-131.87"/></text><text transform="scale(4.0128 .2492)" x="403.23" y="-878.31"/><text x="1925.31" y="-348.34"><tspan x="1925.31" y="-348.34"/></text><text transform="scale(4.0128 .2492)" x="676.87" y="-1746.97"/><text x="2506.58" y="-428.35"><tspan x="2506.58" y="-428.35"/></text><text transform="scale(4.0128 .2492)" x="821.72" y="-2068.01"/><text x="2117.46" y="-900.75"><tspan x="2117.46" y="-900.75"/></text><text transform="scale(4.0128 .2492)" x="724.75" y="-3963.66"/><text x="2698.72" y="-980.75"><tspan x="2698.72" y="-980.75"/></text><text transform="scale(4.0128 .2492)" x="869.6" y="-4284.69"/><text x="865.92" y="433.97"><tspan x="865.92" y="433.97"/></text><text x="729.64" y="231.36"><tspan x="729.64" y="231.36"/></text><text transform="scale(4.0128 .2492)" x="378.91" y="579.25"/><text x="1310.91" y="151.36"><tspan x="1310.91" y="151.36"/></text><text transform="scale(4.0128 .2492)" x="523.76" y="258.22"/><text x="239.33" y="-29.901"><tspan x="239.33" y="-29.901"/></text><text transform="scale(4.0128 .2492)" x="256.72" y="-469.14"/><text x="1337.38" y="-246.37"><tspan x="1337.38" y="-246.37"/></text><text transform="scale(4.0128 .2492)" x="530.36" y="-1337.8"/><text x="1918.65" y="-326.38"><tspan x="1918.65" y="-326.38"/></text><text transform="scale(4.0128 .2492)" x="675.21" y="-1658.84"/><text x="1529.53" y="-798.78"><tspan x="1529.53" y="-798.78"/></text><text transform="scale(4.0128 .2492)" x="578.24" y="-3554.49"/><text x="2110.79" y="-878.78"><tspan x="2110.79" y="-878.78"/></text><text transform="scale(4.0128 .2492)" x="723.09" y="-3875.52"/><text x="277.99" y="535.94"><tspan x="277.99" y="535.94"/></text><text x="729.64" y="231.36"><tspan x="729.64" y="231.36"/></text><text transform="scale(4.0128 .2492)" x="378.91" y="579.26"/><text x="1310.91" y="151.36"><tspan x="1310.91" y="151.36"/></text><text transform="scale(4.0128 .2492)" x="523.76" y="258.22"/><text x="239.33" y="-29.9"><tspan x="239.33" y="-29.9"/></text><text transform="scale(4.0128 .2492)" x="256.72" y="-469.13"/><text x="1337.38" y="-246.37"><tspan x="1337.38" y="-246.37"/></text><text transform="scale(4.0128 .2492)" x="530.36" y="-1337.8"/><text x="1918.65" y="-326.37"><tspan x="1918.65" y="-326.37"/></text><text transform="scale(4.0128 .2492)" x="675.21" y="-1658.83"/><text x="1529.53" y="-798.77"><tspan x="1529.53" y="-798.77"/></text><text transform="scale(4.0128 .2492)" x="578.24" y="-3554.48"/><text x="2110.79" y="-878.78"><tspan x="2110.79" y="-878.78"/></text><text transform="scale(4.0128 .2492)" x="723.09" y="-3875.52"/><text x="277.99" y="535.94"><tspan x="277.99" y="535.94"/></text><text x="1317.57" y="129.39"><tspan x="1317.57" y="129.39"/></text><text transform="scale(4.0128 .2492)" x="525.42" y="170.08"/><text x="1898.84" y="49.39"><tspan x="1898.84" y="49.39"/></text><text transform="scale(4.0128 .2492)" x="670.27" y="-150.95"/><text x="827.26" y="-131.87"><tspan x="827.26" y="-131.87"/></text><text transform="scale(4.0128 .2492)" x="403.23" y="-878.31"/><text x="1925.31" y="-348.34"><tspan x="1925.31" y="-348.34"/></text><text transform="scale(4.0128 .2492)" x="676.87" y="-1746.97"/><text x="2506.58" y="-428.35"><tspan x="2506.58" y="-428.35"/></text><text transform="scale(4.0128 .2492)" x="821.72" y="-2068.01"/><text x="2117.46" y="-900.75"><tspan x="2117.46" y="-900.75"/></text><text transform="scale(4.0128 .2492)" x="724.75" y="-3963.66"/><text x="2698.72" y="-980.75"><tspan x="2698.72" y="-980.75"/></text><text transform="scale(4.0128 .2492)" x="869.6" y="-4284.69"/><text x="865.92" y="433.97"><tspan x="865.92" y="433.97"/></text><text x="729.64" y="231.36"><tspan x="729.64" y="231.36"/></text><text transform="scale(4.0128 .2492)" x="378.91" y="579.25"/><text x="1310.91" y="151.36"><tspan x="1310.91" y="151.36"/></text><text transform="scale(4.0128 .2492)" x="523.76" y="258.22"/><text x="239.33" y="-29.901"><tspan x="239.33" y="-29.901"/></text><text transform="scale(4.0128 .2492)" x="256.72" y="-469.14"/><text x="1337.38" y="-246.37"><tspan x="1337.38" y="-246.37"/></text><text transform="scale(4.0128 .2492)" x="530.36" y="-1337.8"/><text x="1918.65" y="-326.38"><tspan x="1918.65" y="-326.38"/></text><text transform="scale(4.0128 .2492)" x="675.21" y="-1658.84"/><text x="1529.53" y="-798.78"><tspan x="1529.53" y="-798.78"/></text><text transform="scale(4.0128 .2492)" x="578.24" y="-3554.49"/><text x="2110.79" y="-878.78"><tspan x="2110.79" y="-878.78"/></text><text transform="scale(4.0128 .2492)" x="723.09" y="-3875.52"/><text x="277.99" y="535.94"><tspan x="277.99" y="535.94"/></text><text x="-877.95" y="88.17"><tspan x="-877.95" y="88.17"/></text><text transform="scale(4.0128 .2492)" x="-21.706" y="4.666"/><text x="-296.68" y="8.174"><tspan x="-296.68" y="8.174"/></text><text transform="scale(4.0128 .2492)" x="123.14" y="-316.36"/><text x="-1368.26" y="-173.09"><tspan x="-1368.26" y="-173.09"/></text><text transform="scale(4.0128 .2492)" x="-143.9" y="-1043.72"/><text x="-270.21" y="-389.56"><tspan x="-270.21" y="-389.56"/></text><text transform="scale(4.0128 .2492)" x="129.74" y="-1912.38"/><text x="311.06" y="-469.57"><tspan x="311.06" y="-469.57"/></text><text transform="scale(4.0128 .2492)" x="274.59" y="-2233.42"/><text x="-78.06" y="-941.97"><tspan x="-78.06" y="-941.97"/></text><text transform="scale(4.0128 .2492)" x="177.62" y="-4129.07"/><text x="503.2" y="-1021.97"><tspan x="503.2" y="-1021.97"/></text><text transform="scale(4.0128 .2492)" x="322.47" y="-4450.1"/><text x="-1329.6" y="392.75"><tspan x="-1329.6" y="392.75"/></text><text x="-1758.51" y="-104.32"><tspan x="-1758.51" y="-104.32"/></text><text transform="scale(4.0128 .2492)" x="-120.49" y="-981.51"/><text x="-2406.27" y="-872.27"><tspan x="-2406.27" y="-872.27"/></text><text transform="scale(4.0128 .2492)" x="-281.92" y="-4063.17"/><text x="-1699.93" y="-1027.9"><tspan x="-1699.93" y="-1027.9"/></text><text transform="scale(4.0128 .2492)" x="-105.9" y="-4687.7"/><text x="-802.02" y="183.63"><tspan x="-802.02" y="183.63"/></text><text transform="scale(4.0128 .2492)" x="-2.784" y="387.72"/><text x="-220.75" y="103.63"><tspan x="-220.75" y="103.63"/></text><text transform="scale(4.0128 .2492)" x="142.07" y="66.69"/><text x="-1292.33" y="-77.63"><tspan x="-1292.33" y="-77.63"/></text><text transform="scale(4.0128 .2492)" x="-124.97" y="-660.66"/><text x="-194.28" y="-294.1"><tspan x="-194.28" y="-294.1"/></text><text transform="scale(4.0128 .2492)" x="148.67" y="-1529.33"/><text x="386.99" y="-374.11"><tspan x="386.99" y="-374.11"/></text><text transform="scale(4.0128 .2492)" x="293.51" y="-1850.37"/><text x="-2.131" y="-846.51"><tspan x="-2.131" y="-846.51"/></text><text transform="scale(4.0128 .2492)" x="196.55" y="-3746.02"/><text x="579.13" y="-926.51"><tspan x="579.13" y="-926.51"/></text><text transform="scale(4.0128 .2492)" x="341.39" y="-4067.05"/><text x="-1253.67" y="488.21"><tspan x="-1253.67" y="488.21"/></text><text x="-596.63" y="686.33"><tspan x="-596.63" y="686.33"/></text><text transform="scale(4.0128 .2492)" x="48.4" y="2404.96"/><text x="-15.356" y="606.33"><tspan x="-15.356" y="606.33"/></text><text transform="scale(4.0128 .2492)" x="193.25" y="2083.93"/><text x="-1086.94" y="425.07"><tspan x="-1086.94" y="425.07"/></text><text transform="scale(4.0128 .2492)" x="-73.79" y="1356.58"/><text x="11.11" y="208.6"><tspan x="11.11" y="208.6"/></text><text transform="scale(4.0128 .2492)" x="199.85" y="487.91"/><text x="592.38" y="128.59"><tspan x="592.38" y="128.59"/></text><text transform="scale(4.0128 .2492)" x="344.7" y="166.87"/><text x="203.26" y="-343.81"><tspan x="203.26" y="-343.81"/></text><text transform="scale(4.0128 .2492)" x="247.73" y="-1728.78"/><text x="784.52" y="-423.81"><tspan x="784.52" y="-423.81"/></text><text transform="scale(4.0128 .2492)" x="392.58" y="-2049.81"/><text x="-1048.28" y="990.91"><tspan x="-1048.28" y="990.91"/></text><text x="-1540.36" y="608.23"><tspan x="-1540.36" y="608.23"/></text><text transform="scale(4.0128 .2492)" x="-186.78" y="2091.55"/><text x="-959.09" y="528.23"><tspan x="-959.09" y="528.23"/></text><text transform="scale(4.0128 .2492)" x="-41.928" y="1770.52"/><text x="-2030.67" y="346.97"><tspan x="-2030.67" y="346.97"/></text><text transform="scale(4.0128 .2492)" x="-308.97" y="1043.17"/><text x="-932.62" y="130.5"><tspan x="-932.62" y="130.5"/></text><text transform="scale(4.0128 .2492)" x="-35.33" y="174.5"/><text x="-351.35" y="50.49"><tspan x="-351.35" y="50.49"/></text><text transform="scale(4.0128 .2492)" x="109.52" y="-146.54"/><text x="-740.47" y="-421.91"><tspan x="-740.47" y="-421.91"/></text><text transform="scale(4.0128 .2492)" x="12.551" y="-2042.19"/><text x="-159.21" y="-501.91"><tspan x="-159.21" y="-501.91"/></text><text transform="scale(4.0128 .2492)" x="157.4" y="-2363.22"/><text x="-1992.01" y="912.81"><tspan x="-1992.01" y="912.81"/></text><text x="-1292.9" y="683.07"><tspan x="-1292.9" y="683.07"/></text><text transform="scale(4.0128 .2492)" x="-125.11" y="2391.89"/><text x="-711.63" y="603.07"><tspan x="-711.63" y="603.07"/></text><text transform="scale(4.0128 .2492)" x="19.737" y="2070.86"/><text x="-1783.21" y="421.81"><tspan x="-1783.21" y="421.81"/></text><text transform="scale(4.0128 .2492)" x="-247.3" y="1343.51"/><text x="-685.16" y="205.34"><tspan x="-685.16" y="205.34"/></text><text transform="scale(4.0128 .2492)" x="26.337" y="474.84"/><text x="-103.89" y="125.33"><tspan x="-103.89" y="125.33"/></text><text transform="scale(4.0128 .2492)" x="171.19" y="153.8"/><text x="-493.01" y="-347.07"><tspan x="-493.01" y="-347.07"/></text><text transform="scale(4.0128 .2492)" x="74.22" y="-1741.85"/><text x="88.25" y="-427.07"><tspan x="88.25" y="-427.07"/></text><text transform="scale(4.0128 .2492)" x="219.07" y="-2062.87"/><text x="-1744.55" y="987.65"><tspan x="-1744.55" y="987.65"/></text><text x="-2158.94" y=".817"><tspan x="-2158.94" y=".817"/></text><text transform="scale(4.0128 .2492)" x="-340.93" y="-345.88"/><text x="-1577.67" y="-79.18"><tspan x="-1577.67" y="-79.18"/></text><text transform="scale(4.0128 .2492)" x="-196.08" y="-666.91"/><text x="-2649.25" y="-260.44"><tspan x="-2649.25" y="-260.44"/></text><text transform="scale(4.0128 .2492)" x="-463.12" y="-1394.26"/><text x="-1551.2" y="-476.91"><tspan x="-1551.2" y="-476.91"/></text><text transform="scale(4.0128 .2492)" x="-189.48" y="-2262.93"/><text x="-969.93" y="-556.92"><tspan x="-969.93" y="-556.92"/></text><text transform="scale(4.0128 .2492)" x="-44.632" y="-2583.97"/><text x="-1359.05" y="-1029.32"><tspan x="-1359.05" y="-1029.32"/></text><text transform="scale(4.0128 .2492)" x="-141.6" y="-4479.62"/><text x="-777.79" y="-1109.32"><tspan x="-777.79" y="-1109.32"/></text><text transform="scale(4.0128 .2492)" x="3.248" y="-4800.65"/><text x="-2610.59" y="305.4"><tspan x="-2610.59" y="305.4"/></text><text x="-3039.5" y="-191.68"><tspan x="-3039.5" y="-191.68"/></text><text transform="scale(4.0128 .2492)" x="-439.72" y="-1332.06"/><text x="-3687.26" y="-959.63"><tspan x="-3687.26" y="-959.63"/></text><text transform="scale(4.0128 .2492)" x="-601.14" y="-4413.72"/><text x="-2980.92" y="-1115.26"><tspan x="-2980.92" y="-1115.26"/></text><text transform="scale(4.0128 .2492)" x="-425.12" y="-5038.25"/><text x="-2508.23" y="170.04"><tspan x="-2508.23" y="170.04"/></text><text transform="scale(4.0128 .2492)" x="-427.97" y="333.17"/><text x="-1926.96" y="90.04"><tspan x="-1926.96" y="90.04"/></text><text transform="scale(4.0128 .2492)" x="-283.12" y="12.143"/><text x="-2998.54" y="-91.22"><tspan x="-2998.54" y="-91.22"/></text><text transform="scale(4.0128 .2492)" x="-550.16" y="-715.21"/><text x="-1900.49" y="-307.69"><tspan x="-1900.49" y="-307.69"/></text><text transform="scale(4.0128 .2492)" x="-276.52" y="-1583.88"/><text x="-1319.22" y="-387.7"><tspan x="-1319.22" y="-387.7"/></text><text transform="scale(4.0128 .2492)" x="-131.68" y="-1904.92"/><text x="-1708.34" y="-860.1"><tspan x="-1708.34" y="-860.1"/></text><text transform="scale(4.0128 .2492)" x="-228.64" y="-3800.57"/><text x="-1127.08" y="-940.1"><tspan x="-1127.08" y="-940.1"/></text><text transform="scale(4.0128 .2492)" x="-83.8" y="-4121.6"/><text x="-2959.88" y="474.62"><tspan x="-2959.88" y="474.62"/></text><text x="729.63" y="231.34"><tspan x="729.63" y="231.34"/></text><text transform="scale(4.0128 .2492)" x="378.92" y="579.26"/><text x="1310.91" y="151.36"><tspan x="1310.91" y="151.36"/></text><text transform="scale(4.0128 .2492)" x="523.77" y="258.22"/><text x="239.31" y="-29.902"><tspan x="239.31" y="-29.902"/></text><text transform="scale(4.0128 .2492)" x="256.71" y="-469.13"/><text x="1337.38" y="-246.37"><tspan x="1337.38" y="-246.37"/></text><text transform="scale(4.0128 .2492)" x="530.36" y="-1337.81"/><text x="1918.66" y="-326.37"><tspan x="1918.66" y="-326.37"/></text><text transform="scale(4.0128 .2492)" x="675.21" y="-1658.83"/><text x="1529.54" y="-798.77"><tspan x="1529.54" y="-798.77"/></text><text transform="scale(4.0128 .2492)" x="578.23" y="-3554.49"/><text x="2110.78" y="-878.78"><tspan x="2110.78" y="-878.78"/></text><text transform="scale(4.0128 .2492)" x="723.08" y="-3875.51"/><text x="277.97" y="535.92"><tspan x="277.97" y="535.92"/></text><text x="1381.91" y="331.63"><tspan x="1381.91" y="331.63"/></text><text transform="scale(4.0128 .2492)" x="541.46" y="981.62"/><text x="1963.18" y="251.63"><tspan x="1963.18" y="251.63"/></text><text transform="scale(4.0128 .2492)" x="686.3" y="660.59"/><text x="891.6" y="70.37"><tspan x="891.6" y="70.37"/></text><text transform="scale(4.0128 .2492)" x="419.27" y="-66.761"/><text x="1989.65" y="-146.1"><tspan x="1989.65" y="-146.1"/></text><text transform="scale(4.0128 .2492)" x="692.9" y="-935.44"/><text x="2570.92" y="-226.1"><tspan x="2570.92" y="-226.1"/></text><text transform="scale(4.0128 .2492)" x="837.75" y="-1256.46"/><text x="2181.8" y="-698.5"><tspan x="2181.8" y="-698.5"/></text><text transform="scale(4.0128 .2492)" x="740.78" y="-3152.11"/><text x="2763.06" y="-778.51"><tspan x="2763.06" y="-778.51"/></text><text transform="scale(4.0128 .2492)" x="885.63" y="-3473.15"/><text x="930.26" y="636.21"><tspan x="930.26" y="636.21"/></text><text x="-25851" y="1433.39"><tspan x="-25851" y="1433.39"/></text><text transform="scale(4.0128 .2492)" x="952.2" y="-7348.12"/><text x="-25985.75" y="2345.45"><tspan x="-25985.75" y="2345.45"/></text><text transform="scale(4.0128 .2492)" x="918.66" y="-3688.27"/><g fill="#555753"><text transform="scale(1.0508 .95163)" x="-11583.7" y="-4698.27"><tspan x="-11583.7" y="-4698.27"/></text><text transform="scale(4.2168 .23715)" x="1652.24" y="-26894.35"/><text transform="scale(1.0508 .95163)" x="-2180.86" y="-5523.29"><tspan x="-2180.86" y="-5523.29"/></text><text transform="scale(4.2168 .23715)" x="1886.35" y="-26468.46"/><text x="-38185.55000000001" y="-1680.27"><tspan x="-38185.55000000001" y="-1680.27"/></text><text transform="scale(4.0128 .2492)" x="-2417.21" y="-19318.16"/></g><text stroke="#cd1d31" stroke-width="23.273" x="-24002.45" y="-13906.83"><tspan x="-24002.45" y="-13906.83"/></text><text transform="scale(4.0128 .2492)" x="1413" y="-68905.8"/><text stroke="#cd1d31" stroke-width="23.273" x="-24137.43" y="-12994.77"><tspan x="-24137.43" y="-12994.77"/></text><text transform="scale(4.0128 .2492)" x="1379.32" y="-65245.72"/><g fill="#555753"><g stroke="#cd1d31" stroke-width="23.273"><text transform="scale(1.0508 .95163)" x="-9824.52" y="-20818.29"><tspan x="-9824.52" y="-20818.29"/></text><text transform="scale(4.2168 .23715)" x="2090.68" y="-91581.28"/><text transform="scale(1.0508 .95163)" x="-421.91" y="-21643.08"><tspan x="-421.91" y="-21643.08"/></text><text transform="scale(4.2168 .23715)" x="2324.57" y="-91155.39"/><text x="-36337" y="-17020.49"><tspan x="-36337" y="-17020.49"/></text></g><text transform="scale(4.0128 .2492)" x="-1956.65" y="-80875.84"/></g><text stroke="#cd1d31" stroke-width="23.273" x="-7026.62" y="-20596.34"><tspan x="-7026.62" y="-20596.34"/></text><text transform="scale(4.0128 .2492)" x="5347.46" y="-95225.03"/><text stroke="#cd1d31" stroke-width="23.273" x="13909.99" y="-23477.97"><tspan x="13909.99" y="-23477.97"/></text><text transform="scale(4.0128 .2492)" x="10564.95" y="-106788.27"/><text x="-38489.96" y="6733.99"><tspan x="-38489.96" y="6733.99"/></text><text transform="scale(4.0128 .2492)" x="-2197.28" y="13922.58"/><text x="5498.29" y="-670.46"><tspan x="5498.29" y="-670.46"/></text><text transform="scale(4.0128 .2492)" x="5956.74" y="-10815.97"/><text x="19026.03" y="-2532.28"><tspan x="19026.03" y="-2532.28"/></text><text transform="scale(4.0128 .2492)" x="9327.78" y="-18287.41"/><text x="-5912.56" y="-6750.7"><tspan x="-5912.56" y="-6750.7"/></text><text transform="scale(4.0128 .2492)" x="3113.06" y="-35214.74"/><text x="19642.06" y="-11788.59"><tspan x="19642.06" y="-11788.59"/></text><text transform="scale(4.0128 .2492)" x="9481.38" y="-55431.2"/><text x="33169.57" y="-13650.36"><tspan x="33169.57" y="-13650.36"/></text><text transform="scale(4.0128 .2492)" x="12852.41" y="-62902.41"/><text x="24113.69" y="-24644.4"><tspan x="24113.69" y="-24644.4"/></text><text transform="scale(4.0128 .2492)" x="10595.67" y="-107019.36"/><text x="37641.43" y="-26506.45"><tspan x="37641.43" y="-26506.45"/></text><text transform="scale(4.0128 .2492)" x="13966.71" y="-114490.79"/><text x="-5013.07" y="6417.95"><tspan x="-5013.07" y="6417.95"/></text><text x="-26725.36" y="1432.46"><tspan x="-26725.36" y="1432.46"/></text><text transform="scale(4.0128 .2492)" x="734.37" y="-7352.08"/><text x="-26860.11" y="2344.52"><tspan x="-26860.11" y="2344.52"/></text><text transform="scale(4.0128 .2492)" x="700.78" y="-3692"/><g fill="#555753"><text transform="scale(1.0508 .95163)" x="-12415.7" y="-4699.44"><tspan x="-12415.7" y="-4699.44"/></text><text transform="scale(4.2168 .23715)" x="1444.86" y="-26898.54"/><text transform="scale(1.0508 .95163)" x="-3013.09" y="-5524.45"><tspan x="-3013.09" y="-5524.45"/></text><text transform="scale(4.2168 .23715)" x="1678.98" y="-26472.41"/><text x="-39059.91000000001" y="-1681.2"><tspan x="-39059.91000000001" y="-1681.2"/></text><text transform="scale(4.0128 .2492)" x="-2635.04" y="-19322.11"/></g><text stroke="#cd1d31" stroke-width="23.273" x="-24876.81" y="-13907.76"><tspan x="-24876.81" y="-13907.76"/></text><text transform="scale(4.0128 .2492)" x="1195.02" y="-68909.52"/><text stroke="#cd1d31" stroke-width="23.273" x="-25011.56" y="-12995.7"><tspan x="-25011.56" y="-12995.7"/></text><text transform="scale(4.0128 .2492)" x="1161.42" y="-65249.68"/><g fill="#555753"><g stroke="#cd1d31" stroke-width="23.273"><text transform="scale(1.0508 .95163)" x="-10656.52" y="-20819.23"><tspan x="-10656.52" y="-20819.23"/></text><text transform="scale(4.2168 .23715)" x="1883.27" y="-91585.47"/><text transform="scale(1.0508 .95163)" x="-1253.91" y="-21644.24"><tspan x="-1253.91" y="-21644.24"/></text><text transform="scale(4.2168 .23715)" x="2117.33" y="-91159.34"/><text x="-37211.36" y="-17021.42"><tspan x="-37211.36" y="-17021.42"/></text></g><text transform="scale(4.0128 .2492)" x="-2174.48" y="-80879.8"/></g><text stroke="#cd1d31" stroke-width="23.273" x="-7900.98" y="-20597.27"><tspan x="-7900.98" y="-20597.27"/></text><text transform="scale(4.0128 .2492)" x="5129.63" y="-95228.98"/><text stroke="#cd1d31" stroke-width="23.273" x="13035.63" y="-23478.9"><tspan x="13035.63" y="-23478.9"/></text><text transform="scale(4.0128 .2492)" x="10346.89" y="-106792.23"/><text x="-415.77" y="632.81"><tspan x="-415.77" y="632.81"/></text><text transform="scale(4.0128 .2492)" x="128.35" y="2127.79"/><text x="964.16" y="400.32"><tspan x="964.16" y="400.32"/></text><text transform="scale(4.0128 .2492)" x="384.16" y="1351.88"/><text x="1388.56" y="341.9"><tspan x="1388.56" y="341.9"/></text><text transform="scale(4.0128 .2492)" x="489.93" y="1117.29"/><text x="606.18" y="209.71"><tspan x="606.18" y="209.71"/></text><text transform="scale(4.0128 .2492)" x="294.98" y="586.21"/><text x="1407.9" y="51.691"><tspan x="1407.9" y="51.691"/></text><text transform="scale(4.0128 .2492)" x="494.75" y="-47.968"/><text x="1832.28" y="-6.723"><tspan x="1832.28" y="-6.723"/></text><text transform="scale(4.0128 .2492)" x="600.55" y="-282.32"/><text x="1548.19" y="-351.63"><tspan x="1548.19" y="-351.63"/></text><text transform="scale(4.0128 .2492)" x="529.8" y="-1666.35"/><text x="1972.59" y="-410.04"><tspan x="1972.59" y="-410.04"/></text><text transform="scale(4.0128 .2492)" x="635.46" y="-1900.7"/><text x="634.41" y="622.8"><tspan x="634.41" y="622.8"/></text><g fill="#fff"><text x="-372.14" y="154.39"><tspan x="-372.14" y="154.39"/></text><text x="-2400.74" y="393.58"><tspan x="-2400.74" y="393.58"/></text><text x="-2152.88" y="198.11"><tspan x="-2152.88" y="198.11"/></text><text x="1454.48" y="-22.819"><tspan x="1454.48" y="-22.819"/></text><text x="-375.54" y="101.91"><tspan x="-375.54" y="101.91"/></text><text x="-2404.13" y="341.09"><tspan x="-2404.13" y="341.09"/></text><text x="-2156.27" y="145.62"><tspan x="-2156.27" y="145.62"/></text><text x="-388.25" y="148.57"><tspan x="-388.25" y="148.57"/></text><text x="-2486.67" y="395.98"><tspan x="-2486.67" y="395.98"/></text><text x="-2230.28" y="193.8"><tspan x="-2230.28" y="193.8"/></text><text x="1501.25" y="-34.743"><tspan x="1501.25" y="-34.743"/></text><text x="-391.76" y="94.28"><tspan x="-391.76" y="94.28"/></text><text x="-2490.18" y="341.69"><tspan x="-2490.18" y="341.69"/></text><text x="-2233.78" y="139.49"><tspan x="-2233.78" y="139.49"/></text><text opacity=".408" x="-372.14" y="154.39"><tspan x="-372.14" y="154.39"/></text><text opacity=".408" x="-2400.74" y="393.58"><tspan x="-2400.74" y="393.58"/></text><text opacity=".408" x="-2152.88" y="198.11"><tspan x="-2152.88" y="198.11"/></text><text opacity=".408" x="1454.48" y="-22.819"><tspan x="1454.48" y="-22.819"/></text><text opacity=".408" x="-375.54" y="101.91"><tspan x="-375.54" y="101.91"/></text><text opacity=".408" x="-2404.13" y="341.09"><tspan x="-2404.13" y="341.09"/></text><text opacity=".408" x="-2156.27" y="145.62"><tspan x="-2156.27" y="145.62"/></text><text opacity=".408" x="-388.25" y="148.57"><tspan x="-388.25" y="148.57"/></text><text opacity=".408" x="-2486.67" y="395.98"><tspan x="-2486.67" y="395.98"/></text><text opacity=".408" x="-2230.28" y="193.8"><tspan x="-2230.28" y="193.8"/></text><text opacity=".408" x="1501.25" y="-34.743"><tspan x="1501.25" y="-34.743"/></text><text opacity=".408" x="-391.76" y="94.28"><tspan x="-391.76" y="94.28"/></text><text opacity=".408" x="-2490.18" y="341.69"><tspan x="-2490.18" y="341.69"/></text><text opacity=".408" x="-2233.78" y="139.49"><tspan x="-2233.78" y="139.49"/></text></g><text x="1208.35" y="253.53"><tspan x="1208.35" y="253.53"/></text><text transform="scale(4.0128 .2492)" x="498.2" y="668.2"/><text x="1789.62" y="173.53"><tspan x="1789.62" y="173.53"/></text><text transform="scale(4.0128 .2492)" x="643.05" y="347.18"/><text x="718.04" y="-7.733"><tspan x="718.04" y="-7.733"/></text><text transform="scale(4.0128 .2492)" x="376.01" y="-380.18"/><text x="1816.09" y="-224.2"><tspan x="1816.09" y="-224.2"/></text><text transform="scale(4.0128 .2492)" x="649.65" y="-1248.85"/><text x="2397.36" y="-304.21"><tspan x="2397.36" y="-304.21"/></text><text transform="scale(4.0128 .2492)" x="794.5" y="-1569.88"/><text x="2008.24" y="-776.61"><tspan x="2008.24" y="-776.61"/></text><text transform="scale(4.0128 .2492)" x="697.53" y="-3465.53"/><text x="2589.5" y="-856.61"><tspan x="2589.5" y="-856.61"/></text><text transform="scale(4.0128 .2492)" x="842.38" y="-3786.56"/><text x="756.7" y="558.11"><tspan x="756.7" y="558.11"/></text><text x="1386.25" y="318.3"><tspan x="1386.25" y="318.3"/></text><text transform="scale(4.0128 .2492)" x="542.54" y="928.12"/><text x="1967.52" y="238.3"><tspan x="1967.52" y="238.3"/></text><text transform="scale(4.0128 .2492)" x="687.39" y="607.08"/><text x="895.94" y="57.04"><tspan x="895.94" y="57.04"/></text><text transform="scale(4.0128 .2492)" x="420.35" y="-120.27"/><text x="1993.99" y="-159.43"><tspan x="1993.99" y="-159.43"/></text><text transform="scale(4.0128 .2492)" x="693.99" y="-988.93"/><text x="2575.26" y="-239.43"><tspan x="2575.26" y="-239.43"/></text><text transform="scale(4.0128 .2492)" x="838.84" y="-1309.96"/><text x="2186.14" y="-711.83"><tspan x="2186.14" y="-711.83"/></text><text transform="scale(4.0128 .2492)" x="741.87" y="-3205.6"/><text x="2767.4" y="-791.84"><tspan x="2767.4" y="-791.84"/></text><text transform="scale(4.0128 .2492)" x="886.71" y="-3526.64"/><text x="934.6" y="622.88"><tspan x="934.6" y="622.88"/></text><text x="1208.35" y="254.51"><tspan x="1208.35" y="254.51"/></text><text transform="scale(4.0128 .2492)" x="498.2" y="672.15"/><text x="1789.62" y="174.51"><tspan x="1789.62" y="174.51"/></text><text transform="scale(4.0128 .2492)" x="643.05" y="351.11"/><text x="718.04" y="-6.751"><tspan x="718.04" y="-6.751"/></text><text transform="scale(4.0128 .2492)" x="376.01" y="-376.24"/><text x="1816.09" y="-223.22"><tspan x="1816.09" y="-223.22"/></text><text transform="scale(4.0128 .2492)" x="649.65" y="-1244.9"/><text x="2397.36" y="-303.22"><tspan x="2397.36" y="-303.22"/></text><text transform="scale(4.0128 .2492)" x="794.5" y="-1565.93"/><text x="2008.24" y="-775.62"><tspan x="2008.24" y="-775.62"/></text><text transform="scale(4.0128 .2492)" x="697.53" y="-3461.57"/><text x="2589.5" y="-855.63"><tspan x="2589.5" y="-855.63"/></text><text transform="scale(4.0128 .2492)" x="842.38" y="-3782.61"/><text x="756.7" y="559.09"><tspan x="756.7" y="559.09"/></text><text x="-80.32" y="259.75"><tspan x="-80.32" y="259.75"/></text><text transform="scale(4.0128 .2492)" x="177.06" y="693.18"/><text x="500.95" y="179.75"><tspan x="500.95" y="179.75"/></text><text transform="scale(4.0128 .2492)" x="321.91" y="372.14"/><text x="-570.63" y="-1.511"><tspan x="-570.63" y="-1.511"/></text><text transform="scale(4.0128 .2492)" x="54.874" y="-355.21"/><text x="527.42" y="-217.98"><tspan x="527.42" y="-217.98"/></text><text transform="scale(4.0128 .2492)" x="328.51" y="-1223.87"/><text x="1108.69" y="-297.98"><tspan x="1108.69" y="-297.98"/></text><text transform="scale(4.0128 .2492)" x="473.36" y="-1544.9"/><text x="719.57" y="-770.38"><tspan x="719.57" y="-770.38"/></text><text transform="scale(4.0128 .2492)" x="376.39" y="-3440.54"/><text x="1300.83" y="-850.39"><tspan x="1300.83" y="-850.39"/></text><text transform="scale(4.0128 .2492)" x="521.24" y="-3761.58"/><text x="-531.97" y="564.33"><tspan x="-531.97" y="564.33"/></text><text x="1271.25" y="243.19"><tspan x="1271.25" y="243.19"/></text><text transform="scale(4.0128 .2492)" x="513.88" y="626.73"/><text x="1852.52" y="163.19"><tspan x="1852.52" y="163.19"/></text><text transform="scale(4.0128 .2492)" x="658.73" y="305.7"/><text x="780.94" y="-18.07"><tspan x="780.94" y="-18.07"/></text><text transform="scale(4.0128 .2492)" x="391.69" y="-421.66"/><text x="1878.99" y="-234.54"><tspan x="1878.99" y="-234.54"/></text><text transform="scale(4.0128 .2492)" x="665.33" y="-1290.32"/><text x="2460.26" y="-314.55"><tspan x="2460.26" y="-314.55"/></text><text transform="scale(4.0128 .2492)" x="810.18" y="-1611.36"/><text x="2071.14" y="-786.95"><tspan x="2071.14" y="-786.95"/></text><text transform="scale(4.0128 .2492)" x="713.21" y="-3507.01"/><text x="2652.4" y="-866.95"><tspan x="2652.4" y="-866.95"/></text><text transform="scale(4.0128 .2492)" x="858.06" y="-3828.04"/><text x="819.6" y="547.77"><tspan x="819.6" y="547.77"/></text><text x="1410.12" y="151.56"><tspan x="1410.12" y="151.56"/></text><text transform="scale(4.0128 .2492)" x="548.48" y="259.04"/><text x="1991.39" y="71.56"><tspan x="1991.39" y="71.56"/></text><text transform="scale(4.0128 .2492)" x="693.33" y="-61.995"/><text x="919.81" y="-109.7"><tspan x="919.81" y="-109.7"/></text><text transform="scale(4.0128 .2492)" x="426.29" y="-789.34"/><text x="2017.86" y="-326.17"><tspan x="2017.86" y="-326.17"/></text><text transform="scale(4.0128 .2492)" x="699.93" y="-1658.01"/><text x="2599.13" y="-406.17"><tspan x="2599.13" y="-406.17"/></text><text transform="scale(4.0128 .2492)" x="844.78" y="-1979.04"/><text x="2210.01" y="-878.57"><tspan x="2210.01" y="-878.57"/></text><text transform="scale(4.0128 .2492)" x="747.81" y="-3874.68"/><text x="2791.27" y="-958.58"><tspan x="2791.27" y="-958.58"/></text><text transform="scale(4.0128 .2492)" x="892.66" y="-4195.71"/><text x="958.47" y="456.14"><tspan x="958.47" y="456.14"/></text><text x="1329.84" y="193.64"><tspan x="1329.84" y="193.64"/></text><text transform="scale(4.0128 .2492)" x="528.48" y="427.87"/><text x="1911.11" y="113.64"><tspan x="1911.11" y="113.64"/></text><text transform="scale(4.0128 .2492)" x="673.33" y="106.84"/><text x="839.53" y="-67.62"><tspan x="839.53" y="-67.62"/></text><text transform="scale(4.0128 .2492)" x="406.29" y="-620.51"/><text x="1937.58" y="-284.09"><tspan x="1937.58" y="-284.09"/></text><text transform="scale(4.0128 .2492)" x="679.93" y="-1489.18"/><text x="2518.85" y="-364.1"><tspan x="2518.85" y="-364.1"/></text><text transform="scale(4.0128 .2492)" x="824.78" y="-1810.22"/><text x="2129.73" y="-836.5"><tspan x="2129.73" y="-836.5"/></text><text transform="scale(4.0128 .2492)" x="727.81" y="-3705.87"/><text x="2710.99" y="-916.5"><tspan x="2710.99" y="-916.5"/></text><text transform="scale(4.0128 .2492)" x="872.66" y="-4026.9"/><text x="878.19" y="498.22"><tspan x="878.19" y="498.22"/></text><text x="1349.49" y="241.66"><tspan x="1349.49" y="241.66"/></text><text transform="scale(4.0128 .2492)" x="533.38" y="620.58"/><text x="1930.76" y="161.66"><tspan x="1930.76" y="161.66"/></text><text transform="scale(4.0128 .2492)" x="678.22" y="299.54"/><text x="859.18" y="-19.602"><tspan x="859.18" y="-19.602"/></text><text transform="scale(4.0128 .2492)" x="411.19" y="-427.8"/><text x="1957.23" y="-236.07"><tspan x="1957.23" y="-236.07"/></text><text transform="scale(4.0128 .2492)" x="684.82" y="-1296.48"/><text x="2538.5" y="-316.07"><tspan x="2538.5" y="-316.07"/></text><text transform="scale(4.0128 .2492)" x="829.67" y="-1617.51"/><text x="2149.38" y="-788.47"><tspan x="2149.38" y="-788.47"/></text><text transform="scale(4.0128 .2492)" x="732.7" y="-3513.16"/><text x="2730.64" y="-868.48"><tspan x="2730.64" y="-868.48"/></text><text transform="scale(4.0128 .2492)" x="877.55" y="-3834.2"/><text x="897.84" y="546.24"><tspan x="897.84" y="546.24"/></text><text x="1298.86" y="217.73"><tspan x="1298.86" y="217.73"/></text><text transform="scale(4.0128 .2492)" x="520.76" y="524.55"/><text x="1880.13" y="137.73"><tspan x="1880.13" y="137.73"/></text><text transform="scale(4.0128 .2492)" x="665.61" y="203.51"/><text x="808.55" y="-43.533"><tspan x="808.55" y="-43.533"/></text><text transform="scale(4.0128 .2492)" x="398.57" y="-523.83"/><text x="1906.6" y="-260"><tspan x="1906.6" y="-260"/></text><text transform="scale(4.0128 .2492)" x="672.21" y="-1392.51"/><text x="2487.87" y="-340"><tspan x="2487.87" y="-340"/></text><text transform="scale(4.0128 .2492)" x="817.06" y="-1713.54"/><text x="2098.75" y="-812.4"><tspan x="2098.75" y="-812.4"/></text><text transform="scale(4.0128 .2492)" x="720.09" y="-3609.19"/><text x="2680.01" y="-892.41"><tspan x="2680.01" y="-892.41"/></text><text transform="scale(4.0128 .2492)" x="864.94" y="-3930.23"/><text x="847.21" y="522.31"><tspan x="847.21" y="522.31"/></text><text x="1302.93" y="-1.908"><tspan x="1302.93" y="-1.908"/></text><text transform="scale(4.0128 .2492)" x="521.77" y="-356.8"/><text x="1884.2" y="-81.908"><tspan x="1884.2" y="-81.908"/></text><text transform="scale(4.0128 .2492)" x="666.62" y="-677.84"/><text x="812.62" y="-263.17"><tspan x="812.62" y="-263.17"/></text><text transform="scale(4.0128 .2492)" x="399.58" y="-1405.19"/><text x="1910.67" y="-479.64"><tspan x="1910.67" y="-479.64"/></text><text transform="scale(4.0128 .2492)" x="673.22" y="-2273.86"/><text x="2491.94" y="-559.64"><tspan x="2491.94" y="-559.64"/></text><text transform="scale(4.0128 .2492)" x="818.07" y="-2594.89"/><text x="2102.82" y="-1032.04"><tspan x="2102.82" y="-1032.04"/></text><text transform="scale(4.0128 .2492)" x="721.1" y="-4490.54"/><text x="2684.08" y="-1112.05"><tspan x="2684.08" y="-1112.05"/></text><text transform="scale(4.0128 .2492)" x="865.95" y="-4811.58"/><g transform="translate(573.29 -773.63)"><text x="277.99" y="1076.3"><tspan x="277.99" y="1076.3"/></text><text x="-1666.79" y="907.01"><tspan x="-1666.79" y="907.01"/></text></g><text transform="scale(4.0128 .2492)" x="45.23" y="-27.645"/><text x="1245.23" y="269.02"><tspan x="1245.23" y="269.02"/></text><text transform="scale(4.0128 .2492)" x="507.39" y="730.37"/><text x="1826.5" y="189.02"><tspan x="1826.5" y="189.02"/></text><text transform="scale(4.0128 .2492)" x="652.24" y="409.33"/><text x="754.92" y="7.758"><tspan x="754.92" y="7.758"/></text><text transform="scale(4.0128 .2492)" x="385.21" y="-318.01"/><text x="1852.97" y="-208.71"><tspan x="1852.97" y="-208.71"/></text><text transform="scale(4.0128 .2492)" x="658.84" y="-1186.68"/><text x="2434.24" y="-288.71"><tspan x="2434.24" y="-288.71"/></text><text transform="scale(4.0128 .2492)" x="803.69" y="-1507.71"/><text x="2045.12" y="-761.11"><tspan x="2045.12" y="-761.11"/></text><text transform="scale(4.0128 .2492)" x="706.72" y="-3403.35"/><text x="2626.38" y="-841.12"><tspan x="2626.38" y="-841.12"/></text><text transform="scale(4.0128 .2492)" x="851.57" y="-3724.39"/><text x="793.58" y="573.6"><tspan x="793.58" y="573.6"/></text><text x="-610.17" y="598.92"><tspan x="-610.17" y="598.92"/></text><text transform="scale(4.0128 .2492)" x="165.67" y="1840.46"/><text x="1279.95" y="280.76"><tspan x="1279.95" y="280.76"/></text><text transform="scale(4.0128 .2492)" x="516.05" y="777.48"/><text x="1861.22" y="200.76"><tspan x="1861.22" y="200.76"/></text><text transform="scale(4.0128 .2492)" x="660.89" y="456.44"/><text x="789.64" y="19.497"><tspan x="789.64" y="19.497"/></text><text transform="scale(4.0128 .2492)" x="393.86" y="-270.91"/><text x="1887.69" y="-196.97"><tspan x="1887.69" y="-196.97"/></text><text transform="scale(4.0128 .2492)" x="667.49" y="-1139.58"/><text x="2468.96" y="-276.97"><tspan x="2468.96" y="-276.97"/></text><text transform="scale(4.0128 .2492)" x="812.34" y="-1460.61"/><text x="2079.84" y="-749.37"><tspan x="2079.84" y="-749.37"/></text><text transform="scale(4.0128 .2492)" x="715.37" y="-3356.26"/><text x="2661.1" y="-829.38"><tspan x="2661.1" y="-829.38"/></text><text transform="scale(4.0128 .2492)" x="860.22" y="-3677.3"/><text x="828.3" y="585.34"><tspan x="828.3" y="585.34"/></text><text x="1381.91" y="331.63"><tspan x="1381.91" y="331.63"/></text><text transform="scale(4.0128 .2492)" x="541.46" y="981.62"/><text x="1963.18" y="251.63"><tspan x="1963.18" y="251.63"/></text><text transform="scale(4.0128 .2492)" x="686.3" y="660.59"/><text x="891.6" y="70.37"><tspan x="891.6" y="70.37"/></text><text transform="scale(4.0128 .2492)" x="419.27" y="-66.761"/><text x="1989.65" y="-146.1"><tspan x="1989.65" y="-146.1"/></text><text transform="scale(4.0128 .2492)" x="692.9" y="-935.44"/><text x="2570.92" y="-226.1"><tspan x="2570.92" y="-226.1"/></text><text transform="scale(4.0128 .2492)" x="837.75" y="-1256.46"/><text x="2181.8" y="-698.5"><tspan x="2181.8" y="-698.5"/></text><text transform="scale(4.0128 .2492)" x="740.78" y="-3152.11"/><text x="2763.06" y="-778.51"><tspan x="2763.06" y="-778.51"/></text><text transform="scale(4.0128 .2492)" x="885.63" y="-3473.15"/><text x="930.26" y="636.21"><tspan x="930.26" y="636.21"/></text><text x="-25851" y="1433.39"><tspan x="-25851" y="1433.39"/></text><text transform="scale(4.0128 .2492)" x="952.2" y="-7348.12"/><text x="-25985.75" y="2345.45"><tspan x="-25985.75" y="2345.45"/></text><text transform="scale(4.0128 .2492)" x="918.66" y="-3688.27"/><g fill="#555753"><text transform="scale(1.0508 .95163)" x="-11583.7" y="-4698.27"><tspan x="-11583.7" y="-4698.27"/></text><text transform="scale(4.2168 .23715)" x="1652.24" y="-26894.35"/><text transform="scale(1.0508 .95163)" x="-2180.86" y="-5523.29"><tspan x="-2180.86" y="-5523.29"/></text><text transform="scale(4.2168 .23715)" x="1886.35" y="-26468.46"/><text x="-38185.55000000001" y="-1680.27"><tspan x="-38185.55000000001" y="-1680.27"/></text><text transform="scale(4.0128 .2492)" x="-2417.21" y="-19318.16"/></g><text stroke="#cd1d31" stroke-width="23.273" x="-24002.45" y="-13906.83"><tspan x="-24002.45" y="-13906.83"/></text><text transform="scale(4.0128 .2492)" x="1413" y="-68905.8"/><text stroke="#cd1d31" stroke-width="23.273" x="-24137.43" y="-12994.77"><tspan x="-24137.43" y="-12994.77"/></text><text transform="scale(4.0128 .2492)" x="1379.32" y="-65245.72"/><g fill="#555753"><g stroke="#cd1d31" stroke-width="23.273"><text transform="scale(1.0508 .95163)" x="-9824.52" y="-20818.29"><tspan x="-9824.52" y="-20818.29"/></text><text transform="scale(4.2168 .23715)" x="2090.68" y="-91581.28"/><text transform="scale(1.0508 .95163)" x="-421.91" y="-21643.08"><tspan x="-421.91" y="-21643.08"/></text><text transform="scale(4.2168 .23715)" x="2324.57" y="-91155.39"/><text x="-36337" y="-17020.49"><tspan x="-36337" y="-17020.49"/></text></g><text transform="scale(4.0128 .2492)" x="-1956.65" y="-80875.84"/></g><text stroke="#cd1d31" stroke-width="23.273" x="-7026.62" y="-20596.34"><tspan x="-7026.62" y="-20596.34"/></text><text transform="scale(4.0128 .2492)" x="5347.46" y="-95225.03"/><text stroke="#cd1d31" stroke-width="23.273" x="13909.99" y="-23477.97"><tspan x="13909.99" y="-23477.97"/></text><text transform="scale(4.0128 .2492)" x="10564.95" y="-106788.27"/><text x="-38489.96" y="6733.99"><tspan x="-38489.96" y="6733.99"/></text><text transform="scale(4.0128 .2492)" x="-2197.28" y="13922.58"/><text x="5498.29" y="-670.46"><tspan x="5498.29" y="-670.46"/></text><text transform="scale(4.0128 .2492)" x="5956.74" y="-10815.97"/><text x="19026.03" y="-2532.28"><tspan x="19026.03" y="-2532.28"/></text><text transform="scale(4.0128 .2492)" x="9327.78" y="-18287.41"/><text x="-5912.56" y="-6750.7"><tspan x="-5912.56" y="-6750.7"/></text><text transform="scale(4.0128 .2492)" x="3113.06" y="-35214.74"/><text x="19642.06" y="-11788.59"><tspan x="19642.06" y="-11788.59"/></text><text transform="scale(4.0128 .2492)" x="9481.38" y="-55431.2"/><text x="33169.57" y="-13650.36"><tspan x="33169.57" y="-13650.36"/></text><text transform="scale(4.0128 .2492)" x="12852.41" y="-62902.41"/><text x="24113.69" y="-24644.4"><tspan x="24113.69" y="-24644.4"/></text><text transform="scale(4.0128 .2492)" x="10595.67" y="-107019.36"/><text x="37641.43" y="-26506.45"><tspan x="37641.43" y="-26506.45"/></text><text transform="scale(4.0128 .2492)" x="13966.71" y="-114490.79"/><text x="-5013.07" y="6417.95"><tspan x="-5013.07" y="6417.95"/></text><text x="-26725.36" y="1432.46"><tspan x="-26725.36" y="1432.46"/></text><text transform="scale(4.0128 .2492)" x="734.37" y="-7352.08"/><text x="-26860.11" y="2344.52"><tspan x="-26860.11" y="2344.52"/></text><text transform="scale(4.0128 .2492)" x="700.78" y="-3692"/><g fill="#555753"><text transform="scale(1.0508 .95163)" x="-12415.7" y="-4699.44"><tspan x="-12415.7" y="-4699.44"/></text><text transform="scale(4.2168 .23715)" x="1444.86" y="-26898.54"/><text transform="scale(1.0508 .95163)" x="-3013.09" y="-5524.45"><tspan x="-3013.09" y="-5524.45"/></text><text transform="scale(4.2168 .23715)" x="1678.98" y="-26472.41"/><text x="-39059.91000000001" y="-1681.2"><tspan x="-39059.91000000001" y="-1681.2"/></text><text transform="scale(4.0128 .2492)" x="-2635.04" y="-19322.11"/></g><text stroke="#cd1d31" stroke-width="23.273" x="-24876.81" y="-13907.76"><tspan x="-24876.81" y="-13907.76"/></text><text transform="scale(4.0128 .2492)" x="1195.02" y="-68909.52"/><text stroke="#cd1d31" stroke-width="23.273" x="-25011.56" y="-12995.7"><tspan x="-25011.56" y="-12995.7"/></text><text transform="scale(4.0128 .2492)" x="1161.42" y="-65249.68"/><g fill="#555753"><g stroke="#cd1d31" stroke-width="23.273"><text transform="scale(1.0508 .95163)" x="-10656.52" y="-20819.23"><tspan x="-10656.52" y="-20819.23"/></text><text transform="scale(4.2168 .23715)" x="1883.27" y="-91585.47"/><text transform="scale(1.0508 .95163)" x="-1253.91" y="-21644.24"><tspan x="-1253.91" y="-21644.24"/></text><text transform="scale(4.2168 .23715)" x="2117.33" y="-91159.34"/><text x="-37211.36" y="-17021.42"><tspan x="-37211.36" y="-17021.42"/></text></g><text transform="scale(4.0128 .2492)" x="-2174.48" y="-80879.8"/></g><text stroke="#cd1d31" stroke-width="23.273" x="-7900.98" y="-20597.27"><tspan x="-7900.98" y="-20597.27"/></text><text transform="scale(4.0128 .2492)" x="5129.63" y="-95228.98"/><text stroke="#cd1d31" stroke-width="23.273" x="13035.63" y="-23478.9"><tspan x="13035.63" y="-23478.9"/></text><text transform="scale(4.0128 .2492)" x="10346.89" y="-106792.23"/><text x="-415.77" y="632.81"><tspan x="-415.77" y="632.81"/></text><text transform="scale(4.0128 .2492)" x="128.35" y="2127.79"/><text x="964.16" y="400.32"><tspan x="964.16" y="400.32"/></text><text transform="scale(4.0128 .2492)" x="384.16" y="1351.88"/><text x="1388.56" y="341.9"><tspan x="1388.56" y="341.9"/></text><text transform="scale(4.0128 .2492)" x="489.93" y="1117.29"/><text x="606.18" y="209.71"><tspan x="606.18" y="209.71"/></text><text transform="scale(4.0128 .2492)" x="294.98" y="586.21"/><text x="1407.9" y="51.691"><tspan x="1407.9" y="51.691"/></text><text transform="scale(4.0128 .2492)" x="494.75" y="-47.968"/><text x="1832.28" y="-6.723"><tspan x="1832.28" y="-6.723"/></text><text transform="scale(4.0128 .2492)" x="600.55" y="-282.32"/><text x="1548.19" y="-351.63"><tspan x="1548.19" y="-351.63"/></text><text transform="scale(4.0128 .2492)" x="529.8" y="-1666.35"/><text x="1972.59" y="-410.04"><tspan x="1972.59" y="-410.04"/></text><text transform="scale(4.0128 .2492)" x="635.46" y="-1900.7"/><text x="634.41" y="622.8"><tspan x="634.41" y="622.8"/></text><g fill="#fff"><text x="-372.14" y="154.39"><tspan x="-372.14" y="154.39"/></text><text x="-2400.74" y="393.58"><tspan x="-2400.74" y="393.58"/></text><text x="-2152.88" y="198.11"><tspan x="-2152.88" y="198.11"/></text><text x="1454.48" y="-22.819"><tspan x="1454.48" y="-22.819"/></text><text x="-375.54" y="101.91"><tspan x="-375.54" y="101.91"/></text><text x="-2404.13" y="341.09"><tspan x="-2404.13" y="341.09"/></text><text x="-2156.27" y="145.62"><tspan x="-2156.27" y="145.62"/></text><text x="-388.25" y="148.57"><tspan x="-388.25" y="148.57"/></text><text x="-2486.67" y="395.98"><tspan x="-2486.67" y="395.98"/></text><text x="-2230.28" y="193.8"><tspan x="-2230.28" y="193.8"/></text><text x="1501.25" y="-34.743"><tspan x="1501.25" y="-34.743"/></text><text x="-391.76" y="94.28"><tspan x="-391.76" y="94.28"/></text><text x="-2490.18" y="341.69"><tspan x="-2490.18" y="341.69"/></text><text x="-2233.78" y="139.49"><tspan x="-2233.78" y="139.49"/></text><text opacity=".408" x="-372.14" y="154.39"><tspan x="-372.14" y="154.39"/></text><text opacity=".408" x="-2400.74" y="393.58"><tspan x="-2400.74" y="393.58"/></text><text opacity=".408" x="-2152.88" y="198.11"><tspan x="-2152.88" y="198.11"/></text><text opacity=".408" x="1454.48" y="-22.819"><tspan x="1454.48" y="-22.819"/></text><text opacity=".408" x="-375.54" y="101.91"><tspan x="-375.54" y="101.91"/></text><text opacity=".408" x="-2404.13" y="341.09"><tspan x="-2404.13" y="341.09"/></text><text opacity=".408" x="-2156.27" y="145.62"><tspan x="-2156.27" y="145.62"/></text><text opacity=".408" x="-388.25" y="148.57"><tspan x="-388.25" y="148.57"/></text><text opacity=".408" x="-2486.67" y="395.98"><tspan x="-2486.67" y="395.98"/></text><text opacity=".408" x="-2230.28" y="193.8"><tspan x="-2230.28" y="193.8"/></text><text opacity=".408" x="1501.25" y="-34.743"><tspan x="1501.25" y="-34.743"/></text><text opacity=".408" x="-391.76" y="94.28"><tspan x="-391.76" y="94.28"/></text><text opacity=".408" x="-2490.18" y="341.69"><tspan x="-2490.18" y="341.69"/></text><text opacity=".408" x="-2233.78" y="139.49"><tspan x="-2233.78" y="139.49"/></text></g><text x="1208.35" y="253.53"><tspan x="1208.35" y="253.53"/></text><text transform="scale(4.0128 .2492)" x="498.2" y="668.2"/><text x="1789.62" y="173.53"><tspan x="1789.62" y="173.53"/></text><text transform="scale(4.0128 .2492)" x="643.05" y="347.18"/><text x="718.04" y="-7.733"><tspan x="718.04" y="-7.733"/></text><text transform="scale(4.0128 .2492)" x="376.01" y="-380.18"/><text x="1816.09" y="-224.2"><tspan x="1816.09" y="-224.2"/></text><text transform="scale(4.0128 .2492)" x="649.65" y="-1248.85"/><text x="2397.36" y="-304.21"><tspan x="2397.36" y="-304.21"/></text><text transform="scale(4.0128 .2492)" x="794.5" y="-1569.88"/><text x="2008.24" y="-776.61"><tspan x="2008.24" y="-776.61"/></text><text transform="scale(4.0128 .2492)" x="697.53" y="-3465.53"/><text x="2589.5" y="-856.61"><tspan x="2589.5" y="-856.61"/></text><text transform="scale(4.0128 .2492)" x="842.38" y="-3786.56"/><text x="756.7" y="558.11"><tspan x="756.7" y="558.11"/></text><text x="1386.25" y="318.3"><tspan x="1386.25" y="318.3"/></text><text transform="scale(4.0128 .2492)" x="542.54" y="928.12"/><text x="1967.52" y="238.3"><tspan x="1967.52" y="238.3"/></text><text transform="scale(4.0128 .2492)" x="687.39" y="607.08"/><text x="895.94" y="57.04"><tspan x="895.94" y="57.04"/></text><text transform="scale(4.0128 .2492)" x="420.35" y="-120.27"/><text x="1993.99" y="-159.43"><tspan x="1993.99" y="-159.43"/></text><text transform="scale(4.0128 .2492)" x="693.99" y="-988.93"/><text x="2575.26" y="-239.43"><tspan x="2575.26" y="-239.43"/></text><text transform="scale(4.0128 .2492)" x="838.84" y="-1309.96"/><text x="2186.14" y="-711.83"><tspan x="2186.14" y="-711.83"/></text><text transform="scale(4.0128 .2492)" x="741.87" y="-3205.6"/><text x="2767.4" y="-791.84"><tspan x="2767.4" y="-791.84"/></text><text transform="scale(4.0128 .2492)" x="886.71" y="-3526.64"/><text x="934.6" y="622.88"><tspan x="934.6" y="622.88"/></text><text x="1208.35" y="254.51"><tspan x="1208.35" y="254.51"/></text><text transform="scale(4.0128 .2492)" x="498.2" y="672.15"/><text x="1789.62" y="174.51"><tspan x="1789.62" y="174.51"/></text><text transform="scale(4.0128 .2492)" x="643.05" y="351.11"/><text x="718.04" y="-6.751"><tspan x="718.04" y="-6.751"/></text><text transform="scale(4.0128 .2492)" x="376.01" y="-376.24"/><text x="1816.09" y="-223.22"><tspan x="1816.09" y="-223.22"/></text><text transform="scale(4.0128 .2492)" x="649.65" y="-1244.9"/><text x="2397.36" y="-303.22"><tspan x="2397.36" y="-303.22"/></text><text transform="scale(4.0128 .2492)" x="794.5" y="-1565.93"/><text x="2008.24" y="-775.62"><tspan x="2008.24" y="-775.62"/></text><text transform="scale(4.0128 .2492)" x="697.53" y="-3461.57"/><text x="2589.5" y="-855.63"><tspan x="2589.5" y="-855.63"/></text><text transform="scale(4.0128 .2492)" x="842.38" y="-3782.61"/><text x="756.7" y="559.09"><tspan x="756.7" y="559.09"/></text><text x="-80.32" y="259.75"><tspan x="-80.32" y="259.75"/></text><text transform="scale(4.0128 .2492)" x="177.06" y="693.18"/><text x="500.95" y="179.75"><tspan x="500.95" y="179.75"/></text><text transform="scale(4.0128 .2492)" x="321.91" y="372.14"/><text x="-570.63" y="-1.511"><tspan x="-570.63" y="-1.511"/></text><text transform="scale(4.0128 .2492)" x="54.874" y="-355.21"/><text x="527.42" y="-217.98"><tspan x="527.42" y="-217.98"/></text><text transform="scale(4.0128 .2492)" x="328.51" y="-1223.87"/><text x="1108.69" y="-297.98"><tspan x="1108.69" y="-297.98"/></text><text transform="scale(4.0128 .2492)" x="473.36" y="-1544.9"/><text x="719.57" y="-770.38"><tspan x="719.57" y="-770.38"/></text><text transform="scale(4.0128 .2492)" x="376.39" y="-3440.54"/><text x="1300.83" y="-850.39"><tspan x="1300.83" y="-850.39"/></text><text transform="scale(4.0128 .2492)" x="521.24" y="-3761.58"/><text x="-531.97" y="564.33"><tspan x="-531.97" y="564.33"/></text><text x="1271.25" y="243.19"><tspan x="1271.25" y="243.19"/></text><text transform="scale(4.0128 .2492)" x="513.88" y="626.73"/><text x="1852.52" y="163.19"><tspan x="1852.52" y="163.19"/></text><text transform="scale(4.0128 .2492)" x="658.73" y="305.7"/><text x="780.94" y="-18.07"><tspan x="780.94" y="-18.07"/></text><text transform="scale(4.0128 .2492)" x="391.69" y="-421.66"/><text x="1878.99" y="-234.54"><tspan x="1878.99" y="-234.54"/></text><text transform="scale(4.0128 .2492)" x="665.33" y="-1290.32"/><text x="2460.26" y="-314.55"><tspan x="2460.26" y="-314.55"/></text><text transform="scale(4.0128 .2492)" x="810.18" y="-1611.36"/><text x="2071.14" y="-786.95"><tspan x="2071.14" y="-786.95"/></text><text transform="scale(4.0128 .2492)" x="713.21" y="-3507.01"/><text x="2652.4" y="-866.95"><tspan x="2652.4" y="-866.95"/></text><text transform="scale(4.0128 .2492)" x="858.06" y="-3828.04"/><text x="819.6" y="547.77"><tspan x="819.6" y="547.77"/></text><text x="1410.12" y="151.56"><tspan x="1410.12" y="151.56"/></text><text transform="scale(4.0128 .2492)" x="548.48" y="259.04"/><text x="1991.39" y="71.56"><tspan x="1991.39" y="71.56"/></text><text transform="scale(4.0128 .2492)" x="693.33" y="-61.995"/><text x="919.81" y="-109.7"><tspan x="919.81" y="-109.7"/></text><text transform="scale(4.0128 .2492)" x="426.29" y="-789.34"/><text x="2017.86" y="-326.17"><tspan x="2017.86" y="-326.17"/></text><text transform="scale(4.0128 .2492)" x="699.93" y="-1658.01"/><text x="2599.13" y="-406.17"><tspan x="2599.13" y="-406.17"/></text><text transform="scale(4.0128 .2492)" x="844.78" y="-1979.04"/><text x="2210.01" y="-878.57"><tspan x="2210.01" y="-878.57"/></text><text transform="scale(4.0128 .2492)" x="747.81" y="-3874.68"/><text x="2791.27" y="-958.58"><tspan x="2791.27" y="-958.58"/></text><text transform="scale(4.0128 .2492)" x="892.66" y="-4195.71"/><text x="958.47" y="456.14"><tspan x="958.47" y="456.14"/></text><text x="1329.84" y="193.64"><tspan x="1329.84" y="193.64"/></text><text transform="scale(4.0128 .2492)" x="528.48" y="427.87"/><text x="1911.11" y="113.64"><tspan x="1911.11" y="113.64"/></text><text transform="scale(4.0128 .2492)" x="673.33" y="106.84"/><text x="839.53" y="-67.62"><tspan x="839.53" y="-67.62"/></text><text transform="scale(4.0128 .2492)" x="406.29" y="-620.51"/><text x="1937.58" y="-284.09"><tspan x="1937.58" y="-284.09"/></text><text transform="scale(4.0128 .2492)" x="679.93" y="-1489.18"/><text x="2518.85" y="-364.1"><tspan x="2518.85" y="-364.1"/></text><text transform="scale(4.0128 .2492)" x="824.78" y="-1810.22"/><text x="2129.73" y="-836.5"><tspan x="2129.73" y="-836.5"/></text><text transform="scale(4.0128 .2492)" x="727.81" y="-3705.87"/><text x="2710.99" y="-916.5"><tspan x="2710.99" y="-916.5"/></text><text transform="scale(4.0128 .2492)" x="872.66" y="-4026.9"/><text x="878.19" y="498.22"><tspan x="878.19" y="498.22"/></text><text x="1349.49" y="241.66"><tspan x="1349.49" y="241.66"/></text><text transform="scale(4.0128 .2492)" x="533.38" y="620.58"/><text x="1930.76" y="161.66"><tspan x="1930.76" y="161.66"/></text><text transform="scale(4.0128 .2492)" x="678.22" y="299.54"/><text x="859.18" y="-19.602"><tspan x="859.18" y="-19.602"/></text><text transform="scale(4.0128 .2492)" x="411.19" y="-427.8"/><text x="1957.23" y="-236.07"><tspan x="1957.23" y="-236.07"/></text><text transform="scale(4.0128 .2492)" x="684.82" y="-1296.48"/><text x="2538.5" y="-316.07"><tspan x="2538.5" y="-316.07"/></text><text transform="scale(4.0128 .2492)" x="829.67" y="-1617.51"/><text x="2149.38" y="-788.47"><tspan x="2149.38" y="-788.47"/></text><text transform="scale(4.0128 .2492)" x="732.7" y="-3513.16"/><text x="2730.64" y="-868.48"><tspan x="2730.64" y="-868.48"/></text><text transform="scale(4.0128 .2492)" x="877.55" y="-3834.2"/><text x="897.84" y="546.24"><tspan x="897.84" y="546.24"/></text><text x="1298.86" y="217.73"><tspan x="1298.86" y="217.73"/></text><text transform="scale(4.0128 .2492)" x="520.76" y="524.55"/><text x="1880.13" y="137.73"><tspan x="1880.13" y="137.73"/></text><text transform="scale(4.0128 .2492)" x="665.61" y="203.51"/><text x="808.55" y="-43.533"><tspan x="808.55" y="-43.533"/></text><text transform="scale(4.0128 .2492)" x="398.57" y="-523.83"/><text x="1906.6" y="-260"><tspan x="1906.6" y="-260"/></text><text transform="scale(4.0128 .2492)" x="672.21" y="-1392.51"/><text x="2487.87" y="-340"><tspan x="2487.87" y="-340"/></text><text transform="scale(4.0128 .2492)" x="817.06" y="-1713.54"/><text x="2098.75" y="-812.4"><tspan x="2098.75" y="-812.4"/></text><text transform="scale(4.0128 .2492)" x="720.09" y="-3609.19"/><text x="2680.01" y="-892.41"><tspan x="2680.01" y="-892.41"/></text><text transform="scale(4.0128 .2492)" x="864.94" y="-3930.23"/><text x="847.21" y="522.31"><tspan x="847.21" y="522.31"/></text><text x="1302.93" y="-1.908"><tspan x="1302.93" y="-1.908"/></text><text transform="scale(4.0128 .2492)" x="521.77" y="-356.8"/><text x="1884.2" y="-81.908"><tspan x="1884.2" y="-81.908"/></text><text transform="scale(4.0128 .2492)" x="666.62" y="-677.84"/><text x="812.62" y="-263.17"><tspan x="812.62" y="-263.17"/></text><text transform="scale(4.0128 .2492)" x="399.58" y="-1405.19"/><text x="1910.67" y="-479.64"><tspan x="1910.67" y="-479.64"/></text><text transform="scale(4.0128 .2492)" x="673.22" y="-2273.86"/><text x="2491.94" y="-559.64"><tspan x="2491.94" y="-559.64"/></text><text transform="scale(4.0128 .2492)" x="818.07" y="-2594.89"/><text x="2102.82" y="-1032.04"><tspan x="2102.82" y="-1032.04"/></text><text transform="scale(4.0128 .2492)" x="721.1" y="-4490.54"/><text x="2684.08" y="-1112.05"><tspan x="2684.08" y="-1112.05"/></text><text transform="scale(4.0128 .2492)" x="865.95" y="-4811.58"/><g transform="translate(573.29 -773.63)"><text x="277.99" y="1076.3"><tspan x="277.99" y="1076.3"/></text><text x="-1666.79" y="907.01"><tspan x="-1666.79" y="907.01"/></text></g><text transform="scale(4.0128 .2492)" x="45.23" y="-27.645"/><text x="1245.23" y="269.02"><tspan x="1245.23" y="269.02"/></text><text transform="scale(4.0128 .2492)" x="507.39" y="730.37"/><text x="1826.5" y="189.02"><tspan x="1826.5" y="189.02"/></text><text transform="scale(4.0128 .2492)" x="652.24" y="409.33"/><text x="754.92" y="7.758"><tspan x="754.92" y="7.758"/></text><text transform="scale(4.0128 .2492)" x="385.21" y="-318.01"/><text x="1852.97" y="-208.71"><tspan x="1852.97" y="-208.71"/></text><text transform="scale(4.0128 .2492)" x="658.84" y="-1186.68"/><text x="2434.24" y="-288.71"><tspan x="2434.24" y="-288.71"/></text><text transform="scale(4.0128 .2492)" x="803.69" y="-1507.71"/><text x="2045.12" y="-761.11"><tspan x="2045.12" y="-761.11"/></text><text transform="scale(4.0128 .2492)" x="706.72" y="-3403.35"/><text x="2626.38" y="-841.12"><tspan x="2626.38" y="-841.12"/></text><text transform="scale(4.0128 .2492)" x="851.57" y="-3724.39"/><text x="793.58" y="573.6"><tspan x="793.58" y="573.6"/></text><text x="-610.17" y="598.92"><tspan x="-610.17" y="598.92"/></text><text transform="scale(4.0128 .2492)" x="165.67" y="1840.46"/><text x="1279.95" y="280.76"><tspan x="1279.95" y="280.76"/></text><text transform="scale(4.0128 .2492)" x="516.05" y="777.48"/><text x="1861.22" y="200.76"><tspan x="1861.22" y="200.76"/></text><text transform="scale(4.0128 .2492)" x="660.89" y="456.44"/><text x="789.64" y="19.497"><tspan x="789.64" y="19.497"/></text><text transform="scale(4.0128 .2492)" x="393.86" y="-270.91"/><text x="1887.69" y="-196.97"><tspan x="1887.69" y="-196.97"/></text><text transform="scale(4.0128 .2492)" x="667.49" y="-1139.58"/><text x="2468.96" y="-276.97"><tspan x="2468.96" y="-276.97"/></text><text transform="scale(4.0128 .2492)" x="812.34" y="-1460.61"/><text x="2079.84" y="-749.37"><tspan x="2079.84" y="-749.37"/></text><text transform="scale(4.0128 .2492)" x="715.37" y="-3356.26"/><text x="2661.1" y="-829.38"><tspan x="2661.1" y="-829.38"/></text><text transform="scale(4.0128 .2492)" x="860.22" y="-3677.3"/><text x="828.3" y="585.34"><tspan x="828.3" y="585.34"/></text><text x="-615.18" y="582.54"><tspan x="-615.18" y="582.54"/></text><text transform="scale(4.0128 .2492)" x="164.42" y="1774.74"/><text x="478.32" y="264.38"><tspan x="478.32" y="264.38"/></text><text transform="scale(4.0128 .2492)" x="316.28" y="711.76"/><text x="1059.59" y="184.38"><tspan x="1059.59" y="184.38"/></text><text transform="scale(4.0128 .2492)" x="461.12" y="390.73"/><text x="-11.992" y="3.12"><tspan x="-11.992" y="3.12"/></text><text transform="scale(4.0128 .2492)" x="194.09" y="-336.62"/><text x="1086.06" y="-213.35"><tspan x="1086.06" y="-213.35"/></text><text transform="scale(4.0128 .2492)" x="467.72" y="-1205.28"/><text x="1667.33" y="-293.36"><tspan x="1667.33" y="-293.36"/></text><text transform="scale(4.0128 .2492)" x="612.57" y="-1526.32"/><text x="1278.21" y="-765.76"><tspan x="1278.21" y="-765.76"/></text><text transform="scale(4.0128 .2492)" x="515.6" y="-3421.96"/><text x="1859.47" y="-845.76"><tspan x="1859.47" y="-845.76"/></text><text transform="scale(4.0128 .2492)" x="660.45" y="-3742.98"/><text x="26.668" y="568.96"><tspan x="26.668" y="568.96"/></text><path d="m471.95 253.05c0 120.9-98.01 218.91-218.91 218.91s-218.91-98.01-218.91-218.91 98.01-218.91 218.91-218.91 218.91 98.01 218.91 218.91" fill="#d23638" fill-rule="evenodd"/><path d="m152.97 158.97c.926.915 1.758 1.933 2.5 3h201.25c.731-1.076 1.545-2.072 2.438-3h-206.19zm2.406 191.06c-.408.637-.851 1.264-1.344 1.875-.288.386-.594.772-.906 1.125h205.81c-.974-.906-1.865-1.909-2.625-3h-200.94z" fill="#fff" opacity=".6"/><g fill-rule="evenodd"><path d="m256 1c-140.83 0-255 114.17-255 255s114.17 255 255 255 255-114.17 255-255-114.17-255-255-255m8.827 44.931c120.9 0 218.9 98 218.9 218.9s-98 218.9-218.9 218.9-218.93-98-218.93-218.9 98.03-218.9 218.93-218.9" fill-opacity=".067"/><g fill-opacity=".129"><path d="m256 4.43c-138.94 0-251.57 112.63-251.57 251.57s112.63 251.57 251.57 251.57 251.57-112.63 251.57-251.57-112.63-251.57-251.57-251.57m5.885 38.556c120.9 0 218.9 98 218.9 218.9s-98 218.9-218.9 218.9-218.93-98-218.93-218.9 98.03-218.9 218.93-218.9"/><path d="m256 8.36c-136.77 0-247.64 110.87-247.64 247.64s110.87 247.64 247.64 247.64 247.64-110.87 247.64-247.64-110.87-247.64-247.64-247.64m2.942 31.691c120.9 0 218.9 98 218.9 218.9s-98 218.9-218.9 218.9-218.93-98-218.93-218.9 98.03-218.9 218.93-218.9"/></g><path d="m253.04 7.86c-135.42 0-245.19 109.78-245.19 245.19 0 135.42 109.78 245.19 245.19 245.19 135.42 0 245.19-109.78 245.19-245.19 0-135.42-109.78-245.19-245.19-245.19zm0 26.297c120.9 0 218.9 98 218.9 218.9s-98 218.9-218.9 218.9-218.93-98-218.93-218.9 98.03-218.9 218.93-218.9z" fill="#fff" stroke="#000" stroke-opacity=".31" stroke-width="4.904"/></g><path d="m138.44 158.97c-8.07 0-14.562 6.489-14.562 14.562v164.91c0 8.07 6.489 14.594 14.562 14.594 8.07 0 14.562-6.52 14.562-14.594v-164.91c0-8.07-6.489-14.562-14.562-14.562m235.09 0c-8.07 0-14.562 6.489-14.562 14.562v164.91c0 8.07 6.489 14.594 14.562 14.594 8.07 0 14.594-6.52 14.594-14.594v-164.91c0-8.07-6.52-14.562-14.594-14.562" fill="#fff"/><path d="m138.44 158.97c-8.08 0-14.56 6.49-14.56 14.56v14.44l248.57 248.57c59.89-39.06 99.5-106.65 99.5-183.49 0-.59-.02-1.17-.03-1.76l-88.05-88.05c-2.64-2.64-6.29-4.27-10.34-4.27-1.93 0-3.77.37-5.45 1.05l-.3-.3-2.16 1.56c-.01.01-.04.02-.06.03l-.18.13c-.39.26-.77.55-1.13.84l-89.25 64.41c-10.51 7.59-27.45 7.59-37.97 0l-89.19-64.35v.07c-.4-.35-.81-.68-1.25-.97-2.32-1.57-5.12-2.47-8.15-2.47" opacity=".25"/><path d="m138.44 158.97c-8.07 0-14.562 6.489-14.562 14.562v14.438l13.656 9.844 15.469 11.188 84.03 60.63c10.514 7.588 27.454 7.588 37.969 0l83.969-60.59 8.813-6.375 20.344-14.688v-14.438c0-8.07-6.52-14.562-14.594-14.562-2.043 0-3.989.408-5.75 1.156v-.406l-2.156 1.563c-.019.013-.043.019-.062.031l-.188.125c-.387.261-.766.548-1.125.844l-89.25 64.41c-10.514 7.588-27.454 7.588-37.969 0l-89.19-64.34v.063c-.404-.342-.81-.672-1.25-.969-2.323-1.566-5.129-2.469-8.156-2.469" fill="#fff"/></svg>